<svg width="32" height="32" viewBox="0 0 32 32" xmlns="http://www.w3.org/2000/svg">
  <rect width="32" height="32" fill="#000000" />
  <path d="M4.5 18.5L4.5 13.5L11.5 13.5L11.5 14.7L6 14.7L6 15.5L10.7 15.5L10.7 16.6L6 16.6L6 17.4L11.5 17.4L11.5 18.5L4.5 18.5Z" fill="white"/>
  <path d="M12.8 18.5L12.8 13.5L20 13.5L20 14.7L14.3 14.7L14.3 15.5L19.5 15.5L19.5 16.6L14.3 16.6L14.3 17.4L20 17.4L20 18.5L12.8 18.5Z" fill="white"/>
  <path d="M21 13.5L22.5 13.5L22.5 18.5L21 18.5L21 13.5Z" fill="white"/>
  <path d="M23.5 13.5L25 13.5L27.5 16.5L27.5 13.5L29 13.5L29 18.5L27.5 18.5L25 15.5L25 18.5L23.5 18.5L23.5 13.5Z" fill="white"/>
  <path d="M19.8 13.5L14.5 13.5L14.5 18.5L19.8 18.5L19.8 13.5Z" fill="white" fill-opacity="0"/>
</svg>
